<?xml version="1.0" encoding="UTF-8" standalone="no"?>
<svg
   viewBox="0 -960 128 128"
   fill="#e3e3e3"
   version="1.1"
   id="svg1"
   sodipodi:docname="icon_maskable.svg"
   inkscape:version="1.4.3 (0d15f75042, 2025-12-25)"
   width="128"
   height="128"
   inkscape:export-filename="icon.png"
   inkscape:export-xdpi="384"
   inkscape:export-ydpi="384"
   xmlns:inkscape="http://www.inkscape.org/namespaces/inkscape"
   xmlns:sodipodi="http://sodipodi.sourceforge.net/DTD/sodipodi-0.dtd"
   xmlns:xlink="http://www.w3.org/1999/xlink"
   xmlns="http://www.w3.org/2000/svg"
   xmlns:svg="http://www.w3.org/2000/svg">
  <defs
     id="defs1">
    <linearGradient
       id="linearGradient4"
       inkscape:collect="always">
      <stop
         style="stop-color:#ffffff;stop-opacity:0.5;"
         offset="0"
         id="stop3" />
      <stop
         style="stop-color:#ffffff;stop-opacity:0;"
         offset="1"
         id="stop4" />
    </linearGradient>
    <linearGradient
       id="linearGradient6"
       inkscape:collect="always">
      <stop
         style="stop-color:#f6d32d;stop-opacity:1;"
         offset="0"
         id="stop6" />
      <stop
         style="stop-color:#ff7800;stop-opacity:1;"
         offset="1"
         id="stop7" />
    </linearGradient>
    <linearGradient
       inkscape:collect="always"
       xlink:href="#linearGradient6"
       id="linearGradient7"
       x1="-226.58286"
       y1="-1007.3977"
       x2="-317.09262"
       y2="-916.88794"
       gradientUnits="userSpaceOnUse"
       gradientTransform="translate(335.83774,66.142826)" />
    <radialGradient
       inkscape:collect="always"
       xlink:href="#linearGradient4"
       id="radialGradient3"
       cx="129.625"
       cy="-908.875"
       fx="129.625"
       fy="-908.875"
       r="64"
       gradientUnits="userSpaceOnUse"
       gradientTransform="translate(-65.625,12.875001)" />
  </defs>
  <sodipodi:namedview
     id="namedview1"
     pagecolor="#ffffff"
     bordercolor="#ffffff"
     borderopacity="1"
     inkscape:showpageshadow="0"
     inkscape:pageopacity="0"
     inkscape:pagecheckerboard="true"
     inkscape:deskcolor="#000000"
     inkscape:zoom="7.9999996"
     inkscape:cx="64.125003"
     inkscape:cy="68.000003"
     inkscape:window-width="3840"
     inkscape:window-height="2088"
     inkscape:window-x="0"
     inkscape:window-y="0"
     inkscape:window-maximized="1"
     inkscape:current-layer="layer5"
     borderlayer="true" />
  <g
     inkscape:groupmode="layer"
     id="layer5"
     inkscape:label="BG"
     style="display:inline">
    <rect
       style="display:inline;fill:url(#linearGradient7);fill-rule:nonzero"
       id="rect6"
       width="128"
       height="128"
       x="0"
       y="-960" />
    <rect
       style="display:inline;fill:url(#radialGradient3);fill-rule:nonzero"
       id="rect6-9"
       width="128"
       height="128"
       x="0"
       y="-960" />
  </g>
  <path
     id="path2"
     style="display:inline;opacity:1;fill:#f9f9f9;fill-opacity:1;stroke-width:0.5"
     d="m 93,-892.00023 a 8,8 0 0 0 -4,-6.92774 8,8 0 0 0 -8,0 8,8 0 0 0 -3.001953,3.07227 A 8,8 0 0 0 75,-898.92797 a 8,8 0 0 0 -8,0 8,8 0 0 0 -3.001953,3.07227 A 8,8 0 0 0 61,-898.92797 a 8,8 0 0 0 -8,0 8,8 0 0 0 -3.001953,3.07227 A 8,8 0 0 0 47,-898.92797 a 8,8 0 0 0 -8,0 8,8 0 0 0 -4,6.92774 h 2 a 6,6 0 0 1 3,-5.19532 6,6 0 0 1 6,0 6,6 0 0 1 3,5.19532 h 2 a 6,6 0 0 1 3,-5.19532 6,6 0 0 1 6,0 6,6 0 0 1 3,5.19532 h 2 a 6,6 0 0 1 3,-5.19532 6,6 0 0 1 6,0 6,6 0 0 1 3,5.19532 h 2 a 6,6 0 0 1 3,-5.19532 6,6 0 0 1 6,0 6,6 0 0 1 3,5.19532 z" />
  <g
     inkscape:groupmode="layer"
     id="layer4"
     inkscape:label="filament"
     style="display:inline">
    <path
       id="path3"
       style="display:inline;opacity:1;fill:#000000;fill-opacity:1;stroke-width:0.5"
       d="m 93,-892.00023 a 8,8 0 0 0 -4,-6.92774 8,8 0 0 0 -8,0 8,8 0 0 0 -3.001953,3.07227 A 8,8 0 0 0 75,-898.92797 a 8,8 0 0 0 -8,0 8,8 0 0 0 -3.001953,3.07227 A 8,8 0 0 0 61,-898.92797 a 8,8 0 0 0 -8,0 8,8 0 0 0 -3.001953,3.07227 A 8,8 0 0 0 47,-898.92797 a 8,8 0 0 0 -8,0 8,8 0 0 0 -4,6.92774 h 2 a 6,6 0 0 1 3,-5.19532 6,6 0 0 1 6,0 6,6 0 0 1 3,5.19532 h 2 a 6,6 0 0 1 3,-5.19532 6,6 0 0 1 6,0 6,6 0 0 1 3,5.19532 h 2 a 6,6 0 0 1 3,-5.19532 6,6 0 0 1 6,0 6,6 0 0 1 3,5.19532 h 2 a 6,6 0 0 1 3,-5.19532 6,6 0 0 1 6,0 6,6 0 0 1 3,5.19532 z" />
  </g>
  <g
     inkscape:groupmode="layer"
     id="layer1"
     inkscape:label="holder">
    <path
       id="rect2-5"
       style="fill:#000000;fill-opacity:1;stroke-width:0.999993;opacity:1"
       inkscape:label="left"
       d="m -264.00127,-861.00389 c 0.37621,-0.11653 0.77585,-0.17971 1.19135,-0.17971 2.21597,0 3.99955,1.78354 3.99955,3.99954 l 4.8e-4,91.99985 c 0,2.216 -1.7836,3.99958 -3.99957,3.99958 -2.21597,0 -3.99955,-1.78354 -3.99955,-3.99954 l -4.8e-4,-91.99985 c 0,-1.8005 1.17798,-3.31493 2.80822,-3.81987 z m -61.32314,16.43168 c 1.66429,-0.37784 3.44166,0.3447 4.3419,1.90398 l 45.99896,79.67445 c 1.10799,1.91911 0.45512,4.3555 -1.46396,5.4635 -1.91909,1.108 -4.35551,0.45518 -5.4635,-1.46393 l -45.99896,-79.67444 c -1.10799,-1.91912 -0.45512,-4.35551 1.46397,-5.46351 0.35982,-0.20775 0.73752,-0.35286 1.12159,-0.44005 z"
       transform="matrix(-0.96592494,0.25882237,0.25881573,0.96592671,0,0)" />
  </g>
  <g
     inkscape:groupmode="layer"
     id="layer2"
     inkscape:label="helpers"
     style="display:none"
     sodipodi:insensitive="true">
    <rect
       style="opacity:1;fill:#ff00ff;fill-opacity:1;stroke-width:1.41421"
       id="rect3"
       width="32"
       height="128"
       x="0"
       y="-960" />
    <rect
       style="fill:#ff00ff;fill-opacity:1;stroke-width:1.41421"
       id="rect3-9"
       width="32"
       height="128"
       x="96"
       y="-960" />
    <rect
       style="fill:#ff00ff;fill-opacity:1;stroke-width:1.99999"
       id="rect3-9-2"
       width="128"
       height="64"
       x="0"
       y="-960" />
  </g>
</svg>
