<?xml version="1.0" encoding="UTF-8" standalone="no"?>
<svg
   viewBox="0 -960 128 128"
   fill="#e3e3e3"
   version="1.1"
   id="svg1"
   sodipodi:docname="icon_maskable.svg"
   inkscape:version="1.4.3 (0d15f75042, 2025-12-25)"
   width="128"
   height="128"
   inkscape:export-filename="icon.png"
   inkscape:export-xdpi="384"
   inkscape:export-ydpi="384"
   xmlns:inkscape="http://www.inkscape.org/namespaces/inkscape"
   xmlns:sodipodi="http://sodipodi.sourceforge.net/DTD/sodipodi-0.dtd"
   xmlns:xlink="http://www.w3.org/1999/xlink"
   xmlns="http://www.w3.org/2000/svg"
   xmlns:svg="http://www.w3.org/2000/svg">
  <defs
     id="defs1">
    <linearGradient
       id="linearGradient10"
       inkscape:collect="always">
      <stop
         style="stop-color:#ffffff;stop-opacity:0.25;"
         offset="0"
         id="stop9" />
      <stop
         style="stop-color:#ffffff;stop-opacity:0;"
         offset="1"
         id="stop10" />
    </linearGradient>
    <linearGradient
       id="linearGradient7"
       inkscape:collect="always">
      <stop
         style="stop-color:#ffbe6f;stop-opacity:1;"
         offset="0"
         id="stop7" />
      <stop
         style="stop-color:#ff7800;stop-opacity:1;"
         offset="1"
         id="stop8" />
    </linearGradient>
    <linearGradient
       id="linearGradient5"
       inkscape:collect="always">
      <stop
         style="stop-color:#deddda;stop-opacity:1;"
         offset="0"
         id="stop5" />
      <stop
         style="stop-color:#9a9996;stop-opacity:1;"
         offset="1"
         id="stop6" />
    </linearGradient>
    <linearGradient
       inkscape:collect="always"
       xlink:href="#linearGradient5"
       id="linearGradient6"
       x1="-297.32999"
       y1="-851.96423"
       x2="-279.51373"
       y2="-785.47229"
       gradientUnits="userSpaceOnUse" />
    <filter
       inkscape:collect="always"
       style="color-interpolation-filters:sRGB"
       id="filter6"
       x="-0.08355952"
       y="-0.6058416"
       width="1.167119"
       height="2.2116832">
      <feGaussianBlur
         inkscape:collect="always"
         stdDeviation="2.0193551"
         id="feGaussianBlur6" />
    </filter>
    <radialGradient
       inkscape:collect="always"
       xlink:href="#linearGradient7"
       id="radialGradient8"
       cx="64"
       cy="-896"
       fx="64"
       fy="-896"
       r="64"
       gradientUnits="userSpaceOnUse" />
    <linearGradient
       inkscape:collect="always"
       xlink:href="#linearGradient10"
       id="linearGradient8"
       x1="-10.372711"
       y1="-991.63031"
       x2="-10.372711"
       y2="-863.63031"
       gradientUnits="userSpaceOnUse"
       gradientTransform="translate(74.372711,31.630297)" />
  </defs>
  <sodipodi:namedview
     id="namedview1"
     pagecolor="#ffffff"
     bordercolor="#ffffff"
     borderopacity="1"
     inkscape:showpageshadow="0"
     inkscape:pageopacity="0"
     inkscape:pagecheckerboard="true"
     inkscape:deskcolor="#000000"
     inkscape:zoom="4.2937402"
     inkscape:cx="118.66111"
     inkscape:cy="26.084485"
     inkscape:window-width="2794"
     inkscape:window-height="2088"
     inkscape:window-x="20"
     inkscape:window-y="20"
     inkscape:window-maximized="0"
     inkscape:current-layer="layer1"
     borderlayer="true" />
  <g
     inkscape:groupmode="layer"
     id="layer3"
     inkscape:label="mask"
     style="display:none"
     sodipodi:insensitive="true">
    <circle
       style="opacity:1;fill:#2aff80;fill-opacity:1;stroke-width:2.50669"
       id="path4"
       cx="64"
       cy="-896"
       r="64" />
  </g>
  <g
     inkscape:groupmode="layer"
     id="layer5"
     inkscape:label="BG"
     sodipodi:insensitive="true">
    <rect
       style="opacity:1;fill:url(#radialGradient8);stroke-width:3.17894"
       id="rect6"
       width="128"
       height="128"
       x="0"
       y="-960" />
    <rect
       style="fill:url(#linearGradient8);stroke-width:3.17894"
       id="rect6-0"
       width="128"
       height="128"
       x="0"
       y="-960" />
  </g>
  <g
     inkscape:groupmode="layer"
     id="layer4"
     inkscape:label="filament">
    <path
       id="path5-0"
       style="fill:#ffffff;fill-opacity:1;stroke-width:0.5;filter:url(#filter6)"
       d="m 93,-892.00023 a 8,8 0 0 0 -4,-6.92774 8,8 0 0 0 -8,0 8,8 0 0 0 -3.001953,3.07227 A 8,8 0 0 0 75,-898.92797 a 8,8 0 0 0 -8,0 8,8 0 0 0 -3.001953,3.07227 A 8,8 0 0 0 61,-898.92797 a 8,8 0 0 0 -8,0 8,8 0 0 0 -3.001953,3.07227 A 8,8 0 0 0 47,-898.92797 a 8,8 0 0 0 -8,0 8,8 0 0 0 -4,6.92774 h 2 a 6,6 0 0 1 3,-5.19532 6,6 0 0 1 6,0 6,6 0 0 1 3,5.19532 h 2 a 6,6 0 0 1 3,-5.19532 6,6 0 0 1 6,0 6,6 0 0 1 3,5.19532 h 2 a 6,6 0 0 1 3,-5.19532 6,6 0 0 1 6,0 6,6 0 0 1 3,5.19532 h 2 a 6,6 0 0 1 3,-5.19532 6,6 0 0 1 6,0 6,6 0 0 1 3,5.19532 z" />
    <path
       id="path5"
       style="opacity:1;fill:#f9f06b;fill-opacity:1;stroke-width:0.5"
       d="m 93,-892.00023 a 8,8 0 0 0 -4,-6.92774 8,8 0 0 0 -8,0 8,8 0 0 0 -3.001953,3.07227 A 8,8 0 0 0 75,-898.92797 a 8,8 0 0 0 -8,0 8,8 0 0 0 -3.001953,3.07227 A 8,8 0 0 0 61,-898.92797 a 8,8 0 0 0 -8,0 8,8 0 0 0 -3.001953,3.07227 A 8,8 0 0 0 47,-898.92797 a 8,8 0 0 0 -8,0 8,8 0 0 0 -4,6.92774 h 2 a 6,6 0 0 1 3,-5.19532 6,6 0 0 1 6,0 6,6 0 0 1 3,5.19532 h 2 a 6,6 0 0 1 3,-5.19532 6,6 0 0 1 6,0 6,6 0 0 1 3,5.19532 h 2 a 6,6 0 0 1 3,-5.19532 6,6 0 0 1 6,0 6,6 0 0 1 3,5.19532 h 2 a 6,6 0 0 1 3,-5.19532 6,6 0 0 1 6,0 6,6 0 0 1 3,5.19532 z" />
  </g>
  <g
     inkscape:groupmode="layer"
     id="layer1"
     inkscape:label="holder">
    <path
       id="rect2-5"
       style="fill:url(#linearGradient6);fill-opacity:1;stroke-width:0.999993"
       inkscape:label="left"
       d="M -264.00127 -861.00389 C -263.62506 -861.12042 -263.22542 -861.1836 -262.80992 -861.1836 C -260.59395 -861.1836 -258.81037 -859.40006 -258.81037 -857.18406 L -258.80989 -765.18421 C -258.80989 -762.96821 -260.59349 -761.18463 -262.80946 -761.18463 C -265.02543 -761.18463 -266.80901 -762.96817 -266.80901 -765.18417 L -266.80949 -857.18402 C -266.80949 -858.98452 -265.63151 -860.49895 -264.00127 -861.00389 z M -325.32441 -844.57221 C -323.66012 -844.95005 -321.88275 -844.22751 -320.98251 -842.66823 L -274.98355 -762.99378 C -273.87556 -761.07467 -274.52843 -758.63828 -276.44751 -757.53028 C -278.3666 -756.42228 -280.80302 -757.0751 -281.91101 -758.99421 L -327.90997 -838.66865 C -329.01796 -840.58777 -328.36509 -843.02416 -326.446 -844.13216 C -326.08618 -844.33991 -325.70848 -844.48502 -325.32441 -844.57221 z "
       transform="matrix(-0.96592494,0.25882237,0.25881573,0.96592671,0,0)" />
  </g>
  <g
     inkscape:groupmode="layer"
     id="layer2"
     inkscape:label="helpers"
     sodipodi:insensitive="true"
     style="display:none">
    <rect
       style="opacity:1;fill:#ff00ff;fill-opacity:1;stroke-width:1.41421"
       id="rect3"
       width="32"
       height="128"
       x="0"
       y="-960" />
    <rect
       style="fill:#ff00ff;fill-opacity:1;stroke-width:1.41421"
       id="rect3-9"
       width="32"
       height="128"
       x="96"
       y="-960" />
    <rect
       style="fill:#ff00ff;fill-opacity:1;stroke-width:1.99999"
       id="rect3-9-2"
       width="128"
       height="64"
       x="0"
       y="-960" />
  </g>
</svg>
